<?xml version="1.0" encoding="utf-8"?>
<svg xmlns="http://www.w3.org/2000/svg" viewBox="0 0 50 50" width="500" height="500">
  <path d="M25 2C24.78225 2 24.565266 2.0713906 24.384766 2.2128906L1.3847656 20.212891C0.94976562 20.552891 0.87189062 21.181234 1.2128906 21.615234C1.5518906 22.049234 2.1802344 22.128109 2.6152344 21.787109L4 20.703125L4 47C4 47.553 4.447 48 5 48L45 48C45.553 48 46 47.553 46 47L46 20.703125L47.384766 21.787109C47.567766 21.931109 47.783047 22 47.998047 22C48.295047 22 48.590109 21.867234 48.787109 21.615234C49.128109 21.181234 49.050234 20.552891 48.615234 20.212891L25.615234 2.2128906C25.434734 2.0713906 25.21775 2 25 2 z M 22.5 16C23.481 16 24.365 16.406641 25 17.056641C25.635 16.406641 26.519 16 27.5 16C28.69 16 29.739094 16.597859 30.371094 17.505859C30.842094 17.196859 31.394 17 32 17C33.657 17 35 18.343 35 20C35 21.657 33.657 23 32 23C31.074241 23 30.097656 22.113281 30.097656 22.113281 A 1.0001 1.0001 0 0 0 29.380859 21.808594 A 1.0001 1.0001 0 0 0 29.242188 21.818359C29.242188 21.818359 28.589465 21.919697 28.035156 22.398438C27.480847 22.877142 27 23.770167 27 25C27 23.333333 25.615234 22.431641 25.615234 22.431641 A 1.0001 1.0001 0 0 0 24.330078 22.478516C23.966088 22.806249 23.512933 23 23 23C22.218334 23 21.735471 22.813671 21.416016 22.394531 A 1.0001 1.0001 0 0 0 19.765625 22.480469C19.765625 22.480469 19.784525 22.498359 19.539062 22.650391C19.293603 22.802423 18.84091 23 18 23C16.343 23 15 21.657 15 20C15 18.343 16.343 17 18 17C18.606 17 19.157906 17.196859 19.628906 17.505859C20.260906 16.597859 21.31 16 22.5 16 z M 29.306641 24.03125C29.861475 24.473202 30.699199 25 32 25L33.623047 25C36.036047 25 38 26.963953 38 29.376953C38 30.713953 37.401422 31.958922 36.357422 32.794922L32 36.576172L32 37C32 38.657 30.657 40 29 40L21 40C19.343 40 18 38.657 18 37L18 31L23.025391 31C22.582391 30.416 22.253563 29.743 22.101562 29L18 29L18 25C19.17209 25 20.030006 24.697575 20.591797 24.349609C20.656497 24.309539 20.635157 24.296606 20.693359 24.253906C21.394897 24.712765 22.184249 25 23 25C23.627769 25 24.196585 24.814557 24.722656 24.554688C24.83848 24.716863 24.926865 24.789456 24.957031 24.931641C24.496916 26.227481 24 27.105678 24 28.191406C24 29.836376 25.35503 31.191406 27 31.191406C28.64497 31.191406 30 29.836376 30 28.191406C30 27.097038 29.495506 26.216372 29.03125 24.900391C29.05978 24.364823 29.188572 24.144036 29.306641 24.03125 z M 27 25.019531 A 1.0001 1.0001 0 0 0 27.050781 25.316406C27.576966 26.899118 28 28.011216 28 28.191406C28 28.756436 27.56503 29.191406 27 29.191406C26.43497 29.191406 26 28.756436 26 28.191406C26 28.013944 26.423944 26.896518 26.949219 25.314453 A 1.0001 1.0001 0 0 0 27 25.019531 z M 32 27L32 33.71875L35.107422 31.232422C35.675422 30.778422 36 30.102953 36 29.376953C36 28.065953 34.934047 27 33.623047 27L32 27 z" fill="#C69813" />
</svg>