<?xml version="1.0" encoding="utf-8"?>
<svg xmlns="http://www.w3.org/2000/svg" viewBox="0 0 24 24" width="96" height="96">
  <path d="M12 2C11.172 2 10.5 2.672 10.5 3.5L10.5 4.1953125C7.9131836 4.862095 6 7.2048001 6 10L6 16L4.4648438 17.15625L4.4628906 17.15625 A 1 1 0 0 0 4 18 A 1 1 0 0 0 5 19L12 19L19 19 A 1 1 0 0 0 20 18 A 1 1 0 0 0 19.537109 17.15625L18 16L18 10C18 7.2048001 16.086816 4.862095 13.5 4.1953125L13.5 3.5C13.5 2.672 12.828 2 12 2 z M 10 20C10 21.1 10.9 22 12 22C13.1 22 14 21.1 14 20L10 20 z" fill="#C69813" />
</svg>