<?xml version="1.0" encoding="utf-8"?>
<svg xmlns="http://www.w3.org/2000/svg" viewBox="0 0 50 50" width="500" height="500">
  <path d="M15.990234 3C15.570234 3.01 15.200547 3.2701562 15.060547 3.6601562L10.730469 15.789062L9.8300781 14.449219C9.6200781 14.129219 9.2491406 13.959766 8.8691406 14.009766C8.4891406 14.059766 8.1707812 14.319688 8.0507812 14.679688L2.7695312 30.509766C4.2495313 29.559766 5.9690625 29 7.7890625 29C11.639063 29 13.779766 30.299609 15.509766 31.349609C17.029766 32.269609 18.23 33 21 33L27 33C27.46 33 27.900312 33.020547 28.320312 33.060547L23.029297 19.400391L16.929688 3.640625C16.779687 3.250625 16.440234 2.99 15.990234 3 z M 37 8C34.794 8 33 9.794 33 12C33 14.206 34.794 16 37 16C39.206 16 41 14.206 41 12C41 9.794 39.206 8 37 8 z M 26 14C25.6 14 25.240078 14.239375 25.080078 14.609375L24.15625 16.767578L30.615234 33.447266C33.404234 34.156266 35.092781 35.611547 36.300781 36.810547L26.919922 14.609375C26.759922 14.239375 26.4 14 26 14 z M 42.984375 22 A 1.0001 1.0001 0 0 0 42.619141 22.076172C42.6145 22.078089 42.610074 22.080047 42.605469 22.082031 A 1.0001 1.0001 0 0 0 42.292969 22.292969L38.292969 26.292969 A 1.0001 1.0001 0 1 0 39.707031 27.707031L42 25.414062L42 28.585938L37.292969 33.292969 A 1.0001 1.0001 0 1 0 38.707031 34.707031L42 31.414062L42 39L44 39L44 31.414062L47.292969 34.707031 A 1.0001 1.0001 0 1 0 48.707031 33.292969L44 28.585938L44 25.414062L46.292969 27.707031 A 1.0001 1.0001 0 1 0 47.707031 26.292969L43.707031 22.292969 A 1.0001 1.0001 0 0 0 43.398438 22.083984C43.390662 22.080593 43.382877 22.077416 43.375 22.074219 A 1.0001 1.0001 0 0 0 42.998047 22 A 1.0001 1.0001 0 0 0 42.984375 22 z M 8.0332031 31.005859C5.9042031 30.984859 3.9526406 31.777438 2.4316406 33.273438C0.88564063 34.793438 0 36.901734 0 39.052734L0 46.960938L50 47L50 46C50 43.243 47.757 41 45 41L40 41C37.633 41 36.59625 39.948141 35.28125 38.619141C33.68825 37.006141 31.705 35 27 35L21 35C17.676 35 16.117703 34.057594 14.470703 33.058594C12.845703 32.073594 11.168203 31.057859 8.0332031 31.005859 z" fill="#C69813" />
</svg>