<?xml version="1.0" encoding="utf-8"?>
<svg xmlns="http://www.w3.org/2000/svg" viewBox="0 0 48 48" width="144" height="144">
  <path d="M36 3C32.423699 3 29.467098 5.4096636 28.453125 8.6699219C26.439453 9.6344185 25 11.623941 25 14C25 15.18747 25.437256 16.23784 26.037109 17.171875C25.438948 18.145128 25 19.234591 25 20.464844C25 22.293557 25.87148 23.854766 27.09375 25.025391C27.305636 27.537438 28.930151 29.5928 31.199219 30.472656C31.584137 32.51588 33.053576 34.177588 35 34.759766L35 42.5 A 1.50015 1.50015 0 1 0 38 42.5L38 34.783203C40.281006 34.12702 41.968761 32.021801 41.990234 29.542969C44.298317 28.711607 46 26.586435 46 24C46 23.130445 45.757948 22.328423 45.421875 21.578125C46.347828 20.262051 47 18.729013 47 17C47 14.522486 45.749491 12.425107 43.988281 10.9375C43.952444 6.5670378 40.378525 3 36 3 z M 10.271484 22C7.983609 22 5.9258928 23.428019 5.1230469 25.570312L3.4960938 29.904297C1.9980104 30.890737 1 32.58641 1 34.5L1 39L1 39.5L1 42C1 43.105 1.895 44 3 44L4 44C5.105 44 6 43.105 6 42L6 41L21 41L21 42C21 43.105 21.895 44 23 44L24 44C25.105 44 26 43.105 26 42L26 39.5L26 39L26 34.5C26 32.58641 25.00199 30.890737 23.503906 29.904297L21.876953 25.570312L21.876953 25.568359C21.073778 23.425927 19.015211 22 16.728516 22L10.271484 22 z M 10.271484 25L16.728516 25C17.77524 25 18.701101 25.642434 19.068359 26.623047L19.960938 29L7.0390625 29L7.9316406 26.623047C8.2987947 25.643342 9.2253606 25 10.271484 25 z M 7.5 34C8.33 34 9 34.67 9 35.5C9 36.33 8.33 37 7.5 37C6.67 37 6 36.33 6 35.5C6 34.67 6.67 34 7.5 34 z M 19.5 34C20.33 34 21 34.67 21 35.5C21 36.33 20.33 37 19.5 37C18.67 37 18 36.33 18 35.5C18 34.67 18.67 34 19.5 34 z" fill="#C69813" />
</svg>