<?xml version="1.0" encoding="utf-8"?>
<svg xmlns="http://www.w3.org/2000/svg" viewBox="0 0 32 32" width="512" height="512">
  <path d="M16 4C9.9375 4 5 8.9375 5 15C5 18.410156 6.554688 21.449219 9 23.46875L9 25L7 25L7 28L25 28L25 25L23 25L23 23.46875C25.445313 21.449219 27 18.410156 27 15C27 8.9375 22.0625 4 16 4 Z M 16 6C20.980469 6 25 10.019531 25 15C25 17.265625 24.160156 19.332031 22.78125 20.90625C22.339844 19.796875 21.257813 19 20 19C19.800781 19 19.65625 19.117188 19.46875 19.15625C18.914063 17.960938 17.898438 17 16.5 17C16.324219 17 16.167969 17.007813 16 17.03125L16 12.59375L15.71875 12.28125L14 10.5625L14 9L12 9L12 10.5625L10.28125 12.28125L10 12.59375L10 18C9.175781 18 8.417969 18.332031 7.875 18.875C7.308594 17.703125 7 16.394531 7 15C7 10.019531 11.019531 6 16 6 Z M 15 7L15 9L17 9L17 7 Z M 18 9L18 11L20 11L20 9 Z M 21 11L21 13L23 13L23 11 Z M 13 12.4375L14 13.4375L14 18.375C13.988281 18.46875 13.988281 18.5625 14 18.65625L14 22L12 22L12 13.4375 Z M 18 13L18 15L20 15L20 13 Z M 21 15L21 17L23 17L23 15 Z M 16.5 19C17.292969 19 17.902344 19.597656 17.96875 20.375L19.5 21.15625C19.664063 21.058594 19.820313 21 20 21C20.566406 21 21 21.433594 21 22L16 22L16 19.09375C16.152344 19.039063 16.328125 19 16.5 19 Z M 10 20L10 21.65625C9.667969 21.355469 9.316406 21.066406 9.03125 20.71875C9.148438 20.296875 9.53125 20 10 20Z" fill="#C69813" />
</svg>