<svg xmlns="http://www.w3.org/2000/svg" width="33.758" height="5.93" viewBox="0 0 33.758 5.93">
  <g id="Groupe_5" data-name="Groupe 5" transform="translate(-1477.138 -597.07)">
    <path id="start" d="M3.931,5.766,5.775,6.93,5.286,4.736,6.915,3.26l-2.145-.19L3.931,1,3.092,3.069.947,3.26,2.576,4.736,2.087,6.93Z" transform="translate(1476.191 596.07)" fill="#c69813"/>
    <path id="start-2" data-name="start" d="M3.931,5.766,5.775,6.93,5.286,4.736,6.915,3.26l-2.145-.19L3.931,1,3.092,3.069.947,3.26,2.576,4.736,2.087,6.93Z" transform="translate(1483.191 596.07)" fill="#c69813"/>
    <path id="start-3" data-name="start" d="M3.931,5.766,5.775,6.93,5.286,4.736,6.915,3.26l-2.145-.19L3.931,1,3.092,3.069.947,3.26,2.576,4.736,2.087,6.93Z" transform="translate(1490.191 596.07)" fill="#c69813"/>
    <path id="start-4" data-name="start" d="M3.931,5.766,5.775,6.93,5.286,4.736,6.915,3.26l-2.145-.19L3.931,1,3.092,3.069.947,3.26,2.576,4.736,2.087,6.93Z" transform="translate(1497.191 596.07)" fill="#c69813"/>
    <path id="startborder" d="M6.881,5a.215.215,0,0,0-.195.125L5.945,6.676l-1.761.283a.219.219,0,0,0-.172.153.233.233,0,0,0,.052.23L5.282,8.616,5.011,10.46a.231.231,0,0,0,.088.218.208.208,0,0,0,.226.017L6.88,9.846l1.556.849a.208.208,0,0,0,.226-.017.231.231,0,0,0,.088-.218L8.477,8.616,9.7,7.342a.233.233,0,0,0,.052-.23.219.219,0,0,0-.172-.153L7.815,6.676,7.073,5.125A.215.215,0,0,0,6.881,5Zm0,.731.6,1.252a.217.217,0,0,0,.16.122l1.45.233-.994,1.04a.232.232,0,0,0-.061.194l.223,1.516-1.277-.7a.208.208,0,0,0-.2,0l-1.277.7.223-1.516a.232.232,0,0,0-.061-.194L4.67,7.338,6.121,7.1a.217.217,0,0,0,.16-.122Z" transform="translate(1501.138 592.28)" fill="#c69813"/>
  </g>
</svg>
